<?xml version="1.0" encoding="utf-8"?>
<!-- Generator: Adobe Illustrator 27.1.1, SVG Export Plug-In . SVG Version: 6.00 Build 0)  -->
<svg version="1.1" id="Layer_1" xmlns="http://www.w3.org/2000/svg" xmlns:xlink="http://www.w3.org/1999/xlink" x="0px" y="0px"
	 viewBox="0 0 228.2 198.2" style="enable-background:new 0 0 228.2 198.2;" xml:space="preserve">
<g>
	<circle cx="147.8" cy="93.1" r="10.9"/>
	<circle cx="82.2" cy="93.1" r="10.9"/>
	<g>
		<path d="M217.8,98l-14.9-79.7c0-0.2-0.1-0.5-0.1-0.7C200.8,9.8,192.8,5,185,6.9l-49.9,12.5H93.2L43.3,6.9
			c-0.2-0.1-0.5-0.1-0.7-0.1c-8-1.5-15.6,3.7-17.2,11.6L10.5,98c-1.3,6.6,2.1,13.3,8.3,16c1.9,0.9,4,1.3,6.1,1.3
			c3.3,0,6.5-1.2,9.1-3.3v38.4c0,20.1,16.3,36.4,36.4,36.4h87.4c20.1,0,36.4-16.3,36.4-36.4V112c2.6,2.1,5.8,3.3,9.1,3.3
			c2.1,0,4.2-0.4,6.1-1.3C215.7,111.3,219.1,104.6,217.8,98z M179.7,150.5c0,12.1-9.8,21.8-21.9,21.9h-36.4v-11.6l12.5-12.4
			c2.2-2.7,2.2-6.6,0-9.4c-2.6-3.1-7.2-3.6-10.4-1l-9.4,9.5l-9.4-9.5c-2.7-2.2-6.6-2.2-9.4,0c-3.1,2.6-3.6,7.2-1,10.4l12.5,12.4
			v11.6H70.4c-12.1,0-21.8-9.8-21.9-21.9V94l47.3-60.1h36.6L179.7,94V150.5z"/>
	</g>
</g>
</svg>
