<?xml version="1.0" encoding="utf-8"?>
<!-- Generator: Adobe Illustrator 27.1.1, SVG Export Plug-In . SVG Version: 6.00 Build 0)  -->
<svg version="1.1" id="Layer_1" xmlns="http://www.w3.org/2000/svg" xmlns:xlink="http://www.w3.org/1999/xlink" x="0px" y="0px"
	 viewBox="0 0 1000 1000" style="enable-background:new 0 0 1000 1000;" xml:space="preserve">
<g id="_x39_04882" transform="matrix(1.632 0 0 1.632 499.9983 499.9987)">
	<path vector-effect="non-scaling-stroke" d="M243.8-50.1l-40.7-123c-3.1-8.3-11.5-13.6-19.8-13.6h-296c-9.4,0-16.7,5.2-19.8,13.6
		l-37.2,112.6H-194c-28.1,0-51.1,22.9-51.1,51.1v126.1c0,11.5,9.4,20.9,20.9,20.9h57.9c8.1,28.3,34.1,49,65.1,49
		c31.4,0,57.7-21.2,65.4-50h72.4c7.8,28.9,34,50,65.4,50s57.7-21.2,65.4-50H224c11.5,0,20.9-9.4,20.9-19.8V-35.6
		C245.4-37.2,244.9-46.9,243.8-50.1z M195.9-60.4H56.2v-85.5h111.6L195.9-60.4z M-98.1-145.9H14.5v85.5h-140.8L-98.1-145.9z
		 M-101.2,145.9c-14.6,0-27.1-12.5-27.1-27.1s12.5-27.1,27.1-27.1s27.1,12.5,27.1,27.1S-86.7,145.9-101.2,145.9z M102,145.9
		c-14.6,0-27.1-12.5-27.1-27.1S87.4,91.7,102,91.7c15.6,0,27.1,12.5,27.1,27.1C129.2,133.4,116.6,145.9,102,145.9z M204.2,94.8
		h-38.8c-9.6-25.6-34.3-43.8-63.4-43.8S48.2,69.3,38.6,94.8h-76.5c-9.6-25.6-34.3-43.8-63.4-43.8c-29.5,0-54.4,18.6-63.8,44.8h-39.4
		V-9.5c0-6.3,5.2-10.4,10.4-10.4h39.6h358.6L204.2,94.8L204.2,94.8z"/>
</g>
</svg>
